<svg height="512" viewBox="0 0 64 64" width="512" xmlns="http://www.w3.org/2000/svg"><path d="m62 39v4a2.006 2.006 0 0 1 -2 2h-56a2.006 2.006 0 0 1 -2-2v-4z" fill="#57a4ff"/><path d="m43 53h-22l1-3h20z" fill="#57a4ff"/><g fill="#004fac"><path d="m60 12h-56a3 3 0 0 0 -3 3v28a3 3 0 0 0 3 3h21.523l-1.2 3h-2.323a1 1 0 0 0 -.948.684l-1 3a1 1 0 0 0 .948 1.316h22a1 1 0 0 0 .948-1.316l-1-3a1 1 0 0 0 -.948-.684h-2.323l-1.2-3h21.523a3 3 0 0 0 3-3v-28a3 3 0 0 0 -3-3zm-57 3a1 1 0 0 1 1-1h56a1 1 0 0 1 1 1v23h-58zm38.612 37h-19.224l.333-1h18.558zm-4.089-3h-11.046l1.2-3h8.646zm23.477-6a1 1 0 0 1 -1 1h-56a1 1 0 0 1 -1-1v-3h58z"/><path d="m39.707 18.293a1 1 0 0 0 -1.414 1.414l6.293 6.293-6.293 6.293a1 1 0 1 0 1.414 1.414l7-7a1 1 0 0 0 0-1.414z"/><path d="m25.707 18.293a1 1 0 0 0 -1.414 0l-7 7a1 1 0 0 0 0 1.414l7 7a1 1 0 0 0 1.414-1.414l-6.293-6.293 6.293-6.293a1 1 0 0 0 0-1.414z"/><path d="m35.394 18.081a1 1 0 0 0 -1.313.525l-6 14a1 1 0 1 0 1.838.788l6-14a1 1 0 0 0 -.525-1.313z"/><path d="m5 43h7a1 1 0 0 0 0-2h-7a1 1 0 0 0 0 2z"/><path d="m15 43h1a1 1 0 0 0 0-2h-1a1 1 0 0 0 0 2z"/></g></svg>